<?xml version="1.0" encoding="UTF-8"?>
  <svg width="133" height="40" fill="none" viewBox="0 0 332 100" version="1.1" xmlns="http://www.w3.org/2000/svg" xmlns:xlink="http://www.w3.org/1999/xlink">
    <g clipPath="url(#huawei-app-store-en_svg__a)">
      <path
        fill="#C0C1C1"
        d="M308.579 0H23.436c-.902 0-1.792 0-2.69.004-.753.004-1.499.02-2.26.031-1.636.04-3.291.14-4.927.433-1.644.29-3.174.781-4.673 1.543a15.835 15.835 0 0 0-3.979 2.896 15.407 15.407 0 0 0-2.896 3.987C1.245 10.389.76 11.927.476 13.57.18 15.199.078 16.846.04 18.494c-.023.753-.023 1.51-.039 2.264v58.093c.012.761.016 1.503.039 2.264.043 1.648.144 3.295.441 4.92.285 1.647.773 3.19 1.535 4.68a15.244 15.244 0 0 0 2.896 3.967 15.366 15.366 0 0 0 3.979 2.897c1.499.769 3.025 1.253 4.673 1.55 1.632.293 3.291.39 4.927.433.761.016 1.507.028 2.26.028.898.003 1.788.003 2.69.003H308.58c.883 0 1.781 0 2.663-.004.75 0 1.519-.007 2.264-.027 1.648-.047 3.299-.14 4.916-.433 1.647-.297 3.178-.781 4.688-1.55a15.357 15.357 0 0 0 3.975-2.897 15.701 15.701 0 0 0 2.904-3.966 16.187 16.187 0 0 0 1.523-4.682c.305-1.628.398-3.275.457-4.919.008-.765.008-1.503.008-2.264.019-.894.019-1.78.019-2.69v-52.72c0-.903 0-1.793-.019-2.683 0-.753 0-1.51-.008-2.264-.059-1.648-.152-3.295-.457-4.92a16.201 16.201 0 0 0-1.523-4.677 15.872 15.872 0 0 0-6.879-6.882 16.65 16.65 0 0 0-4.688-1.543c-1.617-.292-3.268-.394-4.916-.433-.749-.012-1.518-.027-2.264-.031-.882-.004-1.78-.004-2.663-.004V0z"
      />
      <path
        fill="#000"
        d="M20.758 97.45c-.75 0-1.48-.008-2.221-.027-1.375-.04-3.003-.117-4.595-.402-1.5-.274-2.835-.715-4.072-1.347a13.441 13.441 0 0 1-3.436-2.499 13.046 13.046 0 0 1-2.506-3.432c-.637-1.241-1.074-2.572-1.336-4.072-.3-1.655-.378-3.33-.41-4.607-.015-.519-.035-2.244-.035-2.244V20.754s.024-1.698.035-2.198c.032-1.288.11-2.963.406-4.603.262-1.507.7-2.838 1.336-4.083a13.187 13.187 0 0 1 2.494-3.436A13.715 13.715 0 0 1 9.866 3.92a14.288 14.288 0 0 1 4.064-1.335c1.655-.297 3.334-.371 4.61-.403l2.218-.03H311.23l2.245.03c1.261.032 2.94.106 4.568.399 1.48.257 2.819.698 4.107 1.347a13.495 13.495 0 0 1 3.42 2.494c1.007 1 1.847 2.16 2.514 3.451a14.211 14.211 0 0 1 1.316 4.053c.285 1.55.375 3.143.425 4.638.008.695.008 1.445.008 2.186.02.922.02 1.8.02 2.682v52.733c0 .894 0 1.765-.02 2.643 0 .8 0 1.53-.008 2.284-.05 1.448-.14 3.037-.421 4.556-.254 1.507-.687 2.838-1.328 4.103a13.435 13.435 0 0 1-2.494 3.404 13.297 13.297 0 0 1-3.44 2.515c-1.276.648-2.577 1.077-4.099 1.35-1.573.286-3.205.364-4.595.403-.719.015-1.472.027-2.206.027H20.758z"
      />
      <path
        fill="#fff"
        d="M123.135 67.314h-11.521l-2.819 7.707h-5.063l11.283-28.785h4.786l11.54 28.785h-5.325l-2.881-7.707zm-10.069-3.912h8.601l-3.08-8.245a63.013 63.013 0 0 1-1.253-3.775 109.622 109.622 0 0 1-1.211 3.736l-3.057 8.284zm20.559-4.567a95.06 95.06 0 0 0-.16-5.243h4.607c.172.886.289 1.795.359 2.72 1.905-2.08 4.092-3.119 6.555-3.119 1.429 0 2.757.36 3.971 1.082 1.218.722 2.202 1.862 2.951 3.416.75 1.557 1.125 3.533 1.125 5.93s-.43 4.642-1.285 6.418c-.851 1.777-2.05 3.12-3.584 4.033-1.534.914-3.311 1.37-5.325 1.37-1.456 0-2.893-.245-4.31-.733v8.858l-4.908.418v-25.15h.004zm12.903 10.955c1-1.344 1.5-3.307 1.5-5.892 0-2.397-.414-4.134-1.242-5.216-.828-1.077-1.929-1.62-3.307-1.62-.952 0-1.835.227-2.643.676-.808.449-1.577 1.054-2.303 1.807v11.482a7.533 7.533 0 0 0 1.706.566c.648.14 1.292.207 1.928.207 1.906 0 3.358-.671 4.361-2.014v.004zm9.643-10.955a95.06 95.06 0 0 0-.16-5.243h4.607c.172.886.289 1.795.359 2.72 1.906-2.08 4.092-3.119 6.555-3.119 1.429 0 2.757.36 3.971 1.082 1.218.722 2.202 1.862 2.951 3.416.75 1.557 1.125 3.533 1.125 5.93s-.43 4.642-1.285 6.418c-.851 1.777-2.049 3.12-3.584 4.033-1.534.914-3.31 1.37-5.325 1.37-1.456 0-2.893-.245-4.31-.733v8.858l-4.907.418v-25.15h.003zm12.903 10.955c1-1.344 1.5-3.307 1.5-5.892 0-2.397-.414-4.134-1.242-5.216-.828-1.077-1.929-1.62-3.307-1.62-.952 0-1.835.227-2.643.676-.808.449-1.577 1.054-2.303 1.807v11.482a7.533 7.533 0 0 0 1.706.566c.648.14 1.292.207 1.929.207 1.905 0 3.357-.671 4.36-2.014v.004zm15.761 3.872c-2.12-1.17-3.748-2.85-4.888-5.036-1.14-2.186-1.706-4.767-1.706-7.746 0-3.232.656-5.977 1.964-8.233 1.312-2.257 3.096-3.951 5.356-5.084 2.257-1.132 4.791-1.698 7.598-1.698a20.317 20.317 0 0 1 8.936 2.046l-1.253 3.775c-2.608-1.245-5.099-1.866-7.468-1.866-1.999 0-3.752.426-5.255 1.28-1.503.856-2.671 2.109-3.506 3.764-.832 1.656-1.253 3.654-1.253 6 0 2.054.32 3.874.964 5.463.64 1.589 1.655 2.846 3.037 3.775 1.382.929 3.127 1.39 5.236 1.39.952 0 1.909-.078 2.861-.238a15.08 15.08 0 0 0 2.682-.695v-5.821h-6.652v-3.815h11.423v12.119a25.49 25.49 0 0 1-5.173 1.768 24.31 24.31 0 0 1-5.395.617c-2.889 0-5.388-.586-7.508-1.757v-.008zm35.758 1.363a18.577 18.577 0 0 1-.336-2.842c-.753.902-1.737 1.667-2.951 2.295-1.211.629-2.577.945-4.104.945-1.233 0-2.354-.242-3.369-.726a5.627 5.627 0 0 1-2.413-2.186c-.597-.972-.894-2.163-.894-3.565 0-2.08.75-3.736 2.245-4.977 1.496-1.238 3.99-1.859 7.488-1.859 1.312 0 2.608.094 3.893.277v-.417c0-1.894-.402-3.23-1.215-4.002-.808-.773-1.963-1.164-3.474-1.164-1.046 0-2.167.153-3.358.457-1.19.305-2.237.668-3.139 1.093l-.773-3.576c.875-.398 2.027-.761 3.459-1.093a19.983 19.983 0 0 1 4.529-.496c1.855 0 3.428.281 4.728.844 1.3.562 2.311 1.53 3.037 2.9.731 1.37 1.094 3.217 1.094 5.532v8.523c0 .886.05 2.233.16 4.033h-4.611l.004.004zm-2.94-3.975c1.019-.487 1.854-1.096 2.503-1.827V65.25c-1.34-.144-2.429-.219-3.28-.219-2.026 0-3.428.328-4.201.984-.773.656-1.163 1.538-1.163 2.651 0 1.113.281 1.847.843 2.354.562.512 1.328.765 2.296.765.968 0 1.979-.245 2.998-.734h.004zm11.685-1.17V44.55l4.884-.399v24.85c0 .913.156 1.558.469 1.936.312.379.804.566 1.479.566.305 0 .734-.074 1.292-.218l.578 3.517c-.464.188-1.03.336-1.698.445-.668.114-1.3.168-1.897.168-3.405 0-5.103-1.846-5.103-5.544l-.004.008zm12.216 0V44.55l4.884-.399v24.85c0 .913.156 1.558.468 1.936.313.379.805.566 1.48.566.305 0 .734-.074 1.292-.218l.578 3.517c-.464.188-1.031.336-1.698.445-.668.114-1.3.168-1.898.168-3.404 0-5.102-1.846-5.102-5.544l-.004.008zm29.042-4.947h-14.023c.226 4.49 2.366 6.734 6.418 6.734 1.008 0 2.034-.12 3.088-.367a18.566 18.566 0 0 0 3.03-.983l1.074 3.357c-2.398 1.163-5.091 1.75-8.086 1.75-2.276 0-4.197-.43-5.762-1.293a8.308 8.308 0 0 1-3.526-3.717c-.788-1.616-1.183-3.56-1.183-5.84s.418-4.408 1.254-6.118c.835-1.71 1.995-3.014 3.486-3.912 1.487-.902 3.209-1.35 5.153-1.35 1.945 0 3.721.472 5.076 1.42 1.354.949 2.362 2.21 3.018 3.783.656 1.578.983 3.319.983 5.224v1.312zm-4.786-3.12c-.09-1.71-.523-2.99-1.292-3.845s-1.796-1.28-3.081-1.28c-1.284 0-2.28.429-3.107 1.292-.828.863-1.367 2.14-1.62 3.834h9.1zm8.741-2.842c0-1.179-.054-2.975-.16-5.383h4.588c.082.597.156 1.307.23 2.135.07.828.121 1.5.148 2.015.57-.941 1.129-1.73 1.679-2.374a6.907 6.907 0 0 1 1.929-1.57c.734-.406 1.573-.605 2.51-.605.753 0 1.405.078 1.948.239l-.617 4.251a5.466 5.466 0 0 0-1.589-.219c-1.151 0-2.159.297-3.018.883-.862.59-1.78 1.557-2.76 2.908v13.766h-4.888v-16.05.004zm15.816 24.822a12.326 12.326 0 0 1-1.769-.425l.894-3.576c.332.093.75.18 1.253.27.504.085.98.128 1.429.128 2.171 0 3.799-1.398 4.888-4.193l.317-.793-7.906-21.612h5.262l3.975 12.079c.648 2.065 1.066 3.65 1.253 4.747.371-1.55.808-3.1 1.312-4.65l4.033-12.176h4.946l-7.886 21.71c-.742 2.054-1.542 3.709-2.405 4.966-.863 1.257-1.878 2.19-3.049 2.8-1.175.608-2.588.913-4.24.913a13.35 13.35 0 0 1-2.303-.188h-.004zM103.7 18.24h8.847l-.25 2.136h-6.008v4.138h5.665v2.003h-5.665V31.1h6.328l-.218 2.159h-8.702v-15.02h.003zm14.949 7.355-4.669-7.355h2.948l3.162 5.403 3.33-5.403h2.866l-4.627 7.262 5.009 7.757h-2.986l-3.58-5.91-3.643 5.91h-2.862l5.052-7.668v.004zm9.928-7.355h4.045c1.901 0 3.357.386 4.365 1.163 1.011.773 1.515 1.894 1.515 3.362 0 .995-.227 1.866-.68 2.608a4.493 4.493 0 0 1-1.893 1.71c-.808.398-1.741.597-2.792.597-.574 0-1.229-.07-1.971-.207v5.79h-2.593V18.24h.004zm6.505 6.707c.554-.5.831-1.21.831-2.12 0-.91-.281-1.593-.843-2.003-.562-.406-1.394-.613-2.487-.613h-1.409v5.334c.652.105 1.147.156 1.495.156 1.058 0 1.866-.25 2.416-.754h-.003zm5.985-6.707h2.592v12.8h6.215l-.218 2.222h-8.589V18.24zm12.746 14.285a6.251 6.251 0 0 1-2.518-2.65c-.581-1.137-.87-2.46-.87-3.968 0-1.584.312-2.967.929-4.153a6.52 6.52 0 0 1 2.678-2.749c1.163-.648 2.538-.968 4.123-.968 1.585 0 2.818.312 3.912.937a6.2 6.2 0 0 1 2.498 2.639c.574 1.136.863 2.448.863 3.943 0 1.613-.312 3.014-.937 4.201a6.57 6.57 0 0 1-2.678 2.748c-1.16.645-2.518.965-4.08.965-1.562 0-2.811-.316-3.912-.945h-.008zm6.723-1.843c.726-.488 1.269-1.16 1.628-2.01.359-.855.539-1.831.539-2.932s-.16-2.042-.476-2.885a4.323 4.323 0 0 0-1.523-2.019c-.699-.5-1.597-.753-2.698-.753s-1.944.253-2.678.76a4.642 4.642 0 0 0-1.647 2.043c-.367.855-.551 1.796-.551 2.826 0 1.086.172 2.058.519 2.917.344.859.875 1.534 1.585 2.034.711.495 1.593.745 2.647.745 1.055 0 1.929-.242 2.655-.73v.004zm7.781-12.442h4.701c1.714 0 3.014.344 3.896 1.027.882.683 1.323 1.663 1.323 2.936 0 .796-.16 1.495-.476 2.1-.32.605-.71 1.097-1.183 1.48a5.2 5.2 0 0 1-1.452.85l4.618 6.63h-3.01l-3.912-5.954h-1.909v5.954h-2.592V18.24h-.004zm4.064 7.105c.633 0 1.187-.12 1.671-.367.484-.246.859-.59 1.132-1.038.27-.445.402-.964.402-1.55 0-.753-.238-1.304-.714-1.655-.476-.348-1.171-.523-2.085-.523h-1.878v5.133h1.472zm9.413-7.105h8.847l-.25 2.136h-6.009v4.138h5.665v2.003h-5.665V31.1h6.329l-.219 2.159h-8.702v-15.02h.004zm18.474 0h2.592v15.019h-2.592v-15.02zm9.448 2.167h-4.658l.231-2.167h11.693l-.242 2.167h-4.428v12.852h-2.592V20.407h-.004zm18.517 12.118a6.251 6.251 0 0 1-2.518-2.65c-.582-1.137-.871-2.46-.871-3.968 0-1.584.313-2.967.93-4.153a6.508 6.508 0 0 1 2.678-2.749c1.163-.648 2.537-.968 4.123-.968 1.585 0 2.818.312 3.911.937a6.197 6.197 0 0 1 2.499 2.639c.574 1.136.863 2.448.863 3.943 0 1.613-.312 3.014-.937 4.201a6.57 6.57 0 0 1-2.678 2.748c-1.16.645-2.518.965-4.08.965-1.562 0-2.811-.316-3.912-.945h-.008zm6.723-1.843c.726-.488 1.269-1.16 1.628-2.01.359-.855.539-1.831.539-2.932s-.16-2.042-.476-2.885c-.321-.844-.828-1.515-1.523-2.019-.699-.5-1.597-.753-2.698-.753s-1.944.253-2.678.76a4.65 4.65 0 0 0-1.648 2.043c-.367.855-.55 1.796-.55 2.826 0 1.086.172 2.058.519 2.917.344.859.875 1.534 1.585 2.034.711.495 1.593.745 2.647.745 1.054 0 1.929-.242 2.655-.73v.004zm7.781-12.442h2.979l7.425 11.638a54.983 54.983 0 0 1-.093-3.06V18.24h2.405v15.019h-2.886l-7.542-11.826c.074 1.343.113 2.53.113 3.569v8.257h-2.405v-15.02h.004z"
      />
      <path
        fill="#C8102E"
        fillRule="evenodd"
        d="M67.287 18.119H39.58c-13.052 0-17.826 4.775-17.826 17.826v27.707c0 13.052 4.774 17.826 17.826 17.826h27.7c13.05 0 17.833-4.774 17.833-17.826V35.945c0-13.051-4.775-17.826-17.826-17.826z"
        clipRule="evenodd"
      />
      <path
        fill="#fff"
        d="M34.301 49.804h1.68v8.285H34.3v-3.365h-3.794v3.365h-1.683v-8.285h1.683v3.342H34.3v-3.342zm9.468 4.744c0 1.347-.668 2.065-1.882 2.065s-1.894-.742-1.894-2.124v-4.68h-1.682v4.735c0 2.33 1.296 3.666 3.553 3.666 2.256 0 3.587-1.363 3.587-3.736V49.8h-1.678v4.743l-.004.004zm19.427.956-1.882-5.696h-1.37l-1.882 5.696-1.831-5.692h-1.788l2.889 8.28h1.39l1.885-5.438 1.882 5.439h1.402l2.88-8.28h-1.74l-1.836 5.691zm6.59-.976h3.056v-1.507h-3.056v-1.694h4.439v-1.51H68.13v8.272h6.255v-1.51h-4.6v-2.05zm6.602 3.553h1.659v-8.273h-1.66v8.273zm-27.614-1.718-.754 1.726h-1.718l3.65-8.28h1.484l3.635 8.28h-1.76l-.746-1.726h-3.791zm.624-1.495h2.542l-1.273-2.963-1.265 2.963h-.004zm4.037-15.608c-5.817 0-10.545-4.732-10.545-10.55h1.492c0 4.994 4.064 9.058 9.057 9.058s9.058-4.064 9.058-9.057h1.491c0 5.817-4.732 10.549-10.549 10.549h-.004z"
      />
    </g>
    <defs>
      <clipPath id="huawei-app-store-en_svg__a">
        <path fill="#fff" d="M0 0h332v99.601H0z" />
      </clipPath>
    </defs>
  </svg>

